<svg id="Camada_3" data-name="Camada 3" xmlns="http://www.w3.org/2000/svg" viewBox="0 0 750.42 787.75"><defs><style>.cls-1{fill:#9669ff;}</style></defs><path class="cls-1" d="M771,735.44l-243.53-494a40.51,40.51,0,0,0-72.67,35.83L669.56,712.85H312.76l72.53-147.12h73.83a40.51,40.51,0,0,0,0-81h-99a40.5,40.5,0,0,0-36.33,22.6L211.3,735.44a40.51,40.51,0,0,0,36.33,58.43H734.7A40.51,40.51,0,0,0,771,735.44Z" transform="translate(-24.79 -6.13)"/><path class="cls-1" d="M431.65,10.31A40.52,40.52,0,0,0,377.4,28.73L29,735.44a40.51,40.51,0,1,0,72.66,35.83L450.07,64.55A40.5,40.5,0,0,0,431.65,10.31Z" transform="translate(-24.79 -6.13)"/></svg>